<svg xmlns="http://www.w3.org/2000/svg" xmlns:xlink="http://www.w3.org/1999/xlink" width="320" height="260" version="1.1"><g id="HomeAll" data-ng-click="motoVM.jogButtonClick('G28')" transform="translate(10, 10)"><path fill="#f0f0f0" d="M10 182.5 h-10 v57.5 h57.5 v-10 a 125,125 0 0,1 -47.5 -47.5 Z" class="std"/><use width="20" height="18" x="3" y="217" xlink:href="#HomeIcon"/></g><g id="HomeX" data-ng-click="motoVM.jogButtonClick('G28 X0')" transform="translate(10, 10)"><path fill="khaki" d="M10 57.50 h-10 v-57.5 h57.5 v10 a 125,125 0 0,0 -47.5 47.5 Z" class="std"/><use width="20" height="18" x="3" y="5" xlink:href="#HomeIcon"/><text x="25" y="20" class="home">X</text></g><g id="HomeY" data-ng-click="motoVM.jogButtonClick('G28 Y0')" transform="translate(10, 10)"><path fill="#4682b4" d="M230 57.50 h10 v-57.5 h-57.5 v10 a 125,125 0 0,1 47.5 47.5 z" class="std"/><use width="20" height="18" x="217" y="5" xlink:href="#HomeIcon"/><text x="202" y="20" class="home">Y</text></g><g id="HomeZ" data-ng-click="motoVM.jogButtonClick('G28 Z0')" transform="translate(10, 10)"><path fill="#8fbc8f" d="M230 182.5 h10 v57.5 h-57.5 v-10 a 125,125 0 0,0 47.5 -47.5 z" class="std"/><use width="20" height="18" x="217" y="217" xlink:href="#HomeIcon"/><text x="202" y="232" class="home">Z</text></g><g id="Jog100" fill="silver" class="std" transform="translate(10, 10)"><g id="Y+100" data-ng-click="motoVM.jogXYClick('Y100')"><path d="M-60 -67.07 L-75.93,-83 A112.5,112.5 0 0,1 75,-83 L60,-67.07 A90,90 0 0,0 -60.00,-67.07 z" class="std" transform="translate(120 120)"/></g><g id="X+100" data-ng-click="motoVM.jogXYClick('X100')"><path d="M67.07,-60 L83,-75.93 A112.5,112.5 0 0,1 83,75.93 L67.07,60 A90,90 0 0,0 67.07,-60" class="std" transform="translate(120 120)"/></g><g id="Y-100" data-ng-click="motoVM.jogXYClick('Y-100')"><path d="M-60,67.07 L-75.93,83 A112.5,112.5 0 0,0 75,83 L60,67.07 A90,90 0 0,1 -60.00,67.07 z" class="std" transform="translate(120 120)"/></g><g id="X-100" data-ng-click="motoVM.jogXYClick('X-100')"><path d="M-67.07,-60 L-83,-75.93 A112.5,112.5 0 0,0 -83,75.93 L-67.07,60 A90,90 0 0,1 -67.07,-60 z" class="std" transform="translate(120 120)"/></g></g><g id="Jog10" fill="#d0d0d0" transform="translate(10, 10)"><g id="Y+10" data-ng-click="motoVM.jogXYClick('Y10')"><path d="M-44.06 -51.13 L-60,-67.07 A90,90 0 0,1 60,-67 L44.06,-51.13 A67.5,67.5 0 0,0 -44.06,-51.13 z" class="std" transform="translate(120 120)"/></g><g id="X+10" data-ng-click="motoVM.jogXYClick('X10')"><path d="M51.13 44.06 L67.07,60 A90,90 0 0,0 67.07,-60 L51.13,-44.06 A67.5,67.5 0 0,1 51.13,44.06 z" class="std" transform="translate(120 120)"/></g><g id="Y-10" data-ng-click="motoVM.jogXYClick('Y-10')"><path d="M-44.06 51.13 L-60,67.07 A90,90 0 0,0 60,67 L44.06,51.13 A67.5,67.5 0 0,1 -44.06,51.13 z" class="std" transform="translate(120 120)"/></g><g id="X-10" data-ng-click="motoVM.jogXYClick('X-10')"><path d="M-51.13 44.06 L-67.07,60 A90,90 0 0,1 -67.07,-60 L-51.13,-44.06 A67.5,67.5 0 0,0 -51.13,44.06 z" class="std" transform="translate(120 120)"/></g></g><g id="Jog1" fill="#e0e0e0" transform="translate(10, 10)"><g id="Y+1" data-ng-click="motoVM.jogXYClick('Y1')"><path d="M-28.09 -35.16 L-44.06,-51.13 A67.5,67.5 0 0,1 44.06,-51.13 L28.09,-35.16 A45,45 0 0,0 -28.09,-35.16 z" class="std" transform="translate(120 120)"/></g><g id="X+1" data-ng-click="motoVM.jogXYClick('X1')"><path d="M35.16 -28.09 L51.13,-44.06 A67.5,67.05 0 0,1 51.13,44.06 L35.16,28.09 A45,45 0 0,0 35.16,-28.09 z" class="std" transform="translate(120 120)"/></g><g id="Y-1" data-ng-click="motoVM.jogXYClick('Y-1')"><path d="M-28.09 35.16 L-44.06,51.13 A67.5,67.5 0 0,0 44.06,51.13 L28.09,35.16 A45,45 0 0,1 -28.09,35.16 z" class="std" transform="translate(120 120)"/></g><g id="X-1" data-ng-click="motoVM.jogXYClick('X-1')"><path d="M-35.16 -28.09 L-51.13,-44.06 A67.5,67.05 0 0,0 -51.13,44.06 L-35.16,28.09 A45,45 0 0,1 -35.16,-28.09 z" class="std" transform="translate(120 120)"/></g></g><g id="Jog0_1" fill="#f0f0f0" transform="translate(10, 10)"><g id="Y+0.1" data-ng-click="motoVM.jogXYClick('Y0.1')"><path d="M-28.09 -35.16 A45,45 0 0,1 29.09,-35.16 L0,-7.07 z" class="std" transform="translate(120 120)"/></g><g id="X+0.1" data-ng-click="motoVM.jogXYClick('X0.1')"><path d="M35.16 -28.09 A45,45 0 0,1 35.16,28.09 L7.07,0 z" class="std" transform="translate(120 120)"/></g><g id="Y-0.1" data-ng-click="motoVM.jogXYClick('Y-0.1')"><path d="M-28.09 35.16 A45,45 0 0,0 29.09,35.16 L0,7.07 z" class="std" transform="translate(120 120)"/></g><g id="X-0.1" data-ng-click="motoVM.jogXYClick('X-0.1')"><path d="M-35.16 -28.09 A45,45 0 0,0 -35.16,28.09 L-7.07,0 z" class="std" transform="translate(120 120)"/></g></g><g id="+Z" fill="#b0b0b0" pointer-events="none"><path d="M5,0 h30 a5,5 0 0,1 5,5 v27 h-40 v-27 a5,5 0 0,1 5,-5 z" class="std" transform="translate(270, 10)"/><path fill="#8fbc8f" d="M20,2 l17,17 h-10 v11 h-14 v-11 h-10 z" class="std" transform="translate(270, 10)"/><text x="11" y="18" font-size="12" transform="translate(270, 10)">+Z</text></g><g id="-Z" fill="#b0b0b0" pointer-events="none"><path d="M0,208 h40 v27 a5,5 0 0,1 -5,5 h-30 a5,5 0 0,1 -5,-5 z" class="std" transform="translate(270, 10)"/><path fill="#8fbc8f" d="M20,238 l-17,-17 h10 v-11 h14 v11 h10 z" class="std" transform="translate(270, 10)"/><text x="13" y="230" font-size="12" transform="translate(270, 10)">-Z</text></g><g id="Z+10" fill="#d0d0d0" data-ng-click="motoVM.jogZClick('Z10')" transform="translate(270, 10)"><rect width="40" height="30" x="0" y="32" class="std"/><circle cx="20" cy="47" r="13" class="scl"/><text x="9" y="53" class="scl" font-size="18">10</text></g><g id="Z+1" fill="#e0e0e0" data-ng-click="motoVM.jogZClick('Z1')" transform="translate(270, 10)"><rect width="40" height="26" x="0" y="62" class="std"/><circle cx="20" cy="75" r="11" class="scl"/><text x="15" y="81.5" class="scl" font-size="18">1</text></g><g id="Z+0.1" fill="#f0f0f0" data-ng-click="motoVM.jogZClick('Z0.1')" transform="translate(270, 10)"><rect width="40" height="24" x="0" y="88" class="std"/><circle cx="20" cy="100" r="9.5" class="scl"/><text x="13" y="103.5" class="scl" font-size="10">0.1</text></g><g id="Z-10" fill="#d0d0d0" data-ng-click="motoVM.jogZClick('Z-10')" transform="translate(270, 10)"><rect width="40" height="30" x="0" y="178" class="std"/></g><g id="Z-1" fill="#e0e0e0" data-ng-click="motoVM.jogZClick('Z-1')" transform="translate(270, 10)"><rect width="40" height="26" x="0" y="152" class="std"/></g><g id="Z-0.1" fill="#f0f0f0" data-ng-click="motoVM.jogZClick('Z-0.1')" transform="translate(270, 10)"><rect width="40" height="24" x="0" y="128" class="std"/></g><g id="ZSpace" fill="#000" pointer-events="none" transform="translate(270, 10)"><rect width="40" height="16" x="0" y="112" class="std"/></g><defs><style type="text/css">text{fill:#000}circle.scl,text.home{fill:#000;pointer-events:none}text,text.home,text.scl{font-family:helvetica;stroke-width:1}text.home{stroke:#000;font-weight:900;font-size:16}text.scl{stroke:#fff;fill:#fff;pointer-events:none}circle.scl{fill-opacity:.5;stroke:red;stroke-width:3;filter:url(#f1)}path.home,text{stroke:#000}path.std,rect.std{stroke:#000;stroke-width:1;filter:url(#f1)}path.std:hover,rect.std:hover{fill:orange}</style><filter id="f1" width="300%" height="300%" x="-1" y="-1"><feOffset dx="3" dy="3" in="SourceAlpha" result="offOut"/><feGaussianBlur in="offOut" result="blurOut" stdDeviation="4"/><feBlend in="SourceGraphic" in2="blurOut" mode="normal"/></filter><symbol id="HomeIcon" pointer-events="none" viewBox="0 0 20 18"><desc>HomeIcon - house</desc><path fill="#000" d="M3,18 v-8 l7,-6 l7,6 v8 h-5 v-6 h-4 v6 z" class="home"/><path fill="none" stroke-width="1.5" d="M0,10 l10-8.5 l10,8.5" class="home"/><path d="M15,3 v2.8 l1,.8 v-3.6 z" class="home"/></symbol><symbol id="JogRose" viewBox="20 -10 260 260"><g id="RoseScale"><g><circle cx="144" cy="96" r="9.5" class="scl"/><circle cx="159.5" cy="80.5" r="10.5" class="scl"/><circle cx="175" cy="65" r="12" class="scl"/><circle cx="195" cy="45" r="15" class="scl"/><text x="137" y="99" class="scl" font-size="10">0.1</text><text x="155" y="85" class="scl" font-size="14">1</text><text x="166" y="70" class="scl" font-size="15">10</text><text x="182" y="50" class="scl" font-size="15">100</text></g></g><g id="Decoration" fill-opacity=".6" font-size="11" font-weight="900" pointer-events="none"><path fill="#4682b4" d="M120,20 l17,17 h-10 v11 h-14 v-11 h-10 z" class="std"/><path fill="#4682b4" d="M120,220 l17,-17 h-10 v-11 h-14 v11 h-10 z" class="std"/><path fill="khaki" d="M20,120 l17,17 v-10 h11 v-14 h-11 v-10 z" class="std"/><path fill="khaki" d="M220,120 l-17,-17 v10 h-11 v14 h11 v10 z" class="std"/><text x="113" y="37">+Y</text><text x="113" y="212">-Y</text><text x="27" y="124">-X</text><text x="196" y="124">+X</text></g></symbol><symbol id="PrinterCtl"><use x="0" y="0" xlink:href="#JogRose"/><use x="260" y="0" xlink:href="#JogBar"/></symbol></defs><use x="0" y="0" xlink:href="#PrinterCtl"/></svg>